<?xml version="1.0" encoding="utf-8"?>
<!-- Generator: Adobe Illustrator 26.0.2, SVG Export Plug-In . SVG Version: 6.00 Build 0)  -->
<svg version="1.1" id="Layer_1" xmlns="http://www.w3.org/2000/svg" xmlns:xlink="http://www.w3.org/1999/xlink" x="0px" y="0px"
	 viewBox="0 0 200 200" style="enable-background:new 0 0 200 200;" xml:space="preserve">
<style type="text/css">
	.st0{fill:#FFFFFF;}
	.st1{opacity:0.3;fill:#FFFFFF;}
</style>
<circle class="st0" cx="100" cy="100" r="43.4"/>
<path class="st1" d="M99.8,190.4h-0.3c-2.4-0.1-4.8-0.3-7.2-0.5c-4.8-0.5-8.3-4.8-7.8-9.6c0.5-4.8,4.8-8.3,9.6-7.8
	c2,0.2,4,0.3,6,0.4c40.1-0.2,72.6-32.7,72.7-72.9v-0.2c0-4.8,3.9-8.8,8.8-8.8c4.8,0,8.8,3.9,8.8,8.8v0.2
	C190.2,149.9,149.7,190.4,99.8,190.4z M58.9,179.6c-1.5,0-2.9-0.4-4.2-1.1C26.5,163,9.8,133.7,9.8,100C9.7,81.7,15,63.7,25.2,48.4
	c2.7-4,8.2-5.1,12.2-2.4s5.1,8.2,2.4,12.2C31.6,70.6,27.3,85.2,27.3,100c0,27.2,13.4,50.8,35.8,63.2c4.2,2.3,5.8,7.7,3.4,11.9
	C65,177.9,62.1,179.7,58.9,179.6L58.9,179.6z M173.6,73.8c-3.4,0-6.5-1.9-7.9-5C153.5,43.5,128,27.3,100,27.1
	c-14,0.6-26.4,3.9-37,9.8c-4.3,2.2-9.6,0.5-11.8-3.8c-2.1-4.1-0.7-9.2,3.3-11.6c13.1-7.3,28.2-11.3,45-12h0.3
	c34.9,0.1,66.6,20.2,81.7,51.6c2.1,4.4,0.2,9.6-4.1,11.7C176.2,73.4,174.9,73.7,173.6,73.8z"/>
<circle class="st0" cx="59.1" cy="29.4" r="12.7"/>
<circle class="st0" cx="181.8" cy="99.7" r="12.7"/>
<circle class="st0" cx="59.6" cy="170.9" r="12.7"/>
</svg>
